<svg width="106" height="52" viewBox="0 0 106 52" fill="none" xmlns="http://www.w3.org/2000/svg">
<g clip-path="url(#clip0_177_20)">
<path d="M6.61597 27.967C7.99342 27.9013 9.29872 28.1902 10.4663 29.0108C11.3124 29.6082 11.988 30.337 12.4144 31.2889C13.372 33.416 13.3852 35.5496 12.4078 37.6701C11.5158 39.5936 9.88905 40.5784 7.87535 40.9066C6.7078 41.097 5.51401 41.0379 4.34645 40.6637C2.89029 40.1976 1.75553 39.3179 1.05369 37.9852C-0.212255 35.5955 -0.218815 33.1468 1.15208 30.8096C2.2278 28.9714 3.91354 28.0261 6.06499 27.967C6.24209 27.967 6.41919 27.967 6.61597 27.967ZM9.49549 34.1972C9.49549 34.1118 9.49549 33.7114 9.44302 33.324C9.33807 32.4706 8.97731 31.7484 8.32138 31.1576C7.47523 30.396 5.35658 30.3107 4.54979 31.5449C4.28742 31.9454 4.07096 32.3918 3.93978 32.8448C3.63805 33.9149 3.63805 35.0047 3.93322 36.0879C4.12344 36.7838 4.45796 37.3944 5.0483 37.8211C6.45198 38.8321 8.43945 38.2806 9.14785 36.6919C9.4627 35.9894 9.50205 35.2542 9.49549 34.1906V34.1972Z" fill="white"/>
<path d="M52.931 35.3789C50.5106 35.4117 48.1492 35.3724 45.8404 35.4052C45.5255 36.0289 45.7944 36.4556 45.9978 36.8823C46.2077 37.3287 46.516 37.7029 46.9817 37.9065C47.5064 38.1428 48.0443 38.3266 48.6281 38.3135C49.0675 38.3069 49.507 38.3266 49.9465 38.2872C50.3794 38.2478 50.8123 38.1559 51.2387 38.0837C52.603 38.4579 52.885 38.773 52.9703 40.0073C52.8719 40.0729 52.7735 40.1714 52.662 40.2173C50.5631 41.038 48.3985 41.2677 46.2077 40.6835C44.3448 40.1845 43.0395 38.9962 42.4164 37.158C41.5768 34.683 41.7605 32.2999 43.2954 30.1203C44.2071 28.8336 45.5255 28.1574 47.0866 27.9998C47.6966 27.9408 48.3198 27.9408 48.9298 27.9867C50.8123 28.1377 52.1438 29.0896 52.8326 30.8556C53.3901 32.2868 53.5147 33.7508 52.931 35.3789ZM45.7682 32.9433C46.247 32.9564 46.6734 32.9761 47.1063 32.9827C47.5851 32.9893 48.0705 33.0024 48.5493 32.9827C48.9691 32.963 49.4217 33.114 49.8153 32.812C50.0317 32.1686 49.7956 31.6106 49.4873 31.0723C49.3037 30.7506 49.0151 30.5536 48.674 30.442C47.5589 30.081 46.5488 30.4945 46.024 31.5318C45.8863 31.801 45.7813 32.0964 45.7092 32.3918C45.6698 32.5428 45.7354 32.7135 45.7616 32.9433H45.7682Z" fill="white"/>
<path d="M72.4252 29.1093C73.5337 28.374 74.7209 28.0983 75.9541 27.9867C76.5641 27.9341 77.1872 27.9604 77.8038 27.967C79.9815 27.9998 82.1526 29.4835 82.415 32.3458C82.4347 32.5625 82.4412 32.7857 82.4412 33.0089C82.4412 35.3001 82.4412 37.5978 82.4412 39.889C82.4412 40.1057 82.4084 40.3158 82.3887 40.5915C81.5885 40.8213 80.8014 40.6834 80.1258 40.6834C79.5158 40.5258 79.3059 40.0466 78.9189 39.6921C78.545 39.7906 78.2564 40.0729 77.9284 40.2632C76.6034 41.0248 75.1932 41.2283 73.737 40.7425C72.4711 40.3158 71.6381 39.18 71.5659 37.867C71.4478 35.7268 72.1759 34.6698 74.2224 34.0527C74.5963 33.9411 74.9899 33.8558 75.3834 33.823C76.4329 33.7311 77.4889 33.672 78.5384 33.5866C78.6237 33.5866 78.7024 33.5275 78.7811 33.4947C79.0632 32.4903 78.827 31.8732 77.83 31.0328C76.4198 30.7046 76.0984 30.7111 74.229 31.0591C73.0614 30.9803 72.5957 30.2647 72.4383 29.1158L72.4252 29.1093ZM75.2588 36.298C75.2588 36.554 75.2194 36.902 75.2654 37.2433C75.3703 37.9983 76.0721 38.4644 76.8133 38.2675C77.102 38.1887 77.3971 38.0443 77.6267 37.8604C78.217 37.3746 78.5844 36.7247 78.7287 35.9697C78.7615 35.8122 78.6959 35.6349 78.6696 35.4708C78.0662 34.985 77.3906 35.09 76.7543 35.1622C76.164 35.2279 75.6983 35.5693 75.2588 36.3045V36.298Z" fill="white"/>
<path d="M34.9391 37.007C35.4638 35.2213 35.9361 33.5866 36.4215 31.9585C36.6445 31.2035 36.8806 30.442 37.1167 29.6936C37.425 28.7417 38.1072 28.269 39.0845 28.2296C39.6945 28.2033 40.3046 28.1574 40.8555 28.2559C40.9342 28.3412 40.9802 28.3675 40.9933 28.4003C41.0064 28.4397 40.9933 28.4922 40.9867 28.5316C39.6224 32.4312 38.2646 36.3308 36.8937 40.2304C36.8544 40.3486 36.7625 40.4537 36.6707 40.6112C35.8246 40.8016 34.9456 40.7819 34.0863 40.6506C33.3058 40.539 32.7483 40.0204 32.4531 39.2654C32.2169 38.6483 31.9874 38.0312 31.7709 37.4075C30.8329 34.7093 29.895 32.011 28.9635 29.3063C28.8652 29.024 28.7996 28.722 28.7012 28.374C29.6588 28.1114 30.564 28.0983 31.4364 28.4265C32.1054 28.6694 32.4662 29.234 32.663 29.8905C33.1287 31.4465 33.5747 33.0089 34.0339 34.5714C34.2175 35.2016 34.4012 35.8384 34.598 36.4687C34.6439 36.6197 34.762 36.7444 34.9325 37.0136L34.9391 37.007Z" fill="white"/>
<path d="M18.9672 22.7872V37.5651C19.1771 37.8014 19.3476 37.9984 19.5313 38.2019C19.9708 38.2413 20.4102 38.2807 20.9219 38.3266C20.9547 38.5498 21.0662 38.8059 21.0268 39.0291C20.8169 40.1976 19.7543 41.0117 18.5671 40.9657C16.8945 40.9001 15.74 39.9153 15.5104 38.2807C15.3858 37.4075 15.3333 36.5344 15.3399 35.6547C15.353 32.5297 15.3399 29.4113 15.353 26.2864C15.353 25.7612 15.4055 25.2294 15.4973 24.7173C15.7072 23.575 16.3894 22.9185 17.511 22.7741C17.9374 22.7216 18.3703 22.7741 18.9737 22.7806L18.9672 22.7872Z" fill="white"/>
<path d="M84.1535 13.0119C84.4028 12.1782 84.593 11.5479 84.7832 10.9242C85.1571 9.69002 85.7278 8.55427 86.469 7.50387C86.7182 7.14935 86.9478 6.75545 87.4332 6.65698C87.8202 6.7095 88.0694 6.92614 88.1941 7.29378C88.181 7.38569 88.1941 7.48417 88.1613 7.55639C87.9579 7.89777 87.748 8.23258 87.5316 8.56083C86.2525 10.4844 85.636 12.5983 85.5835 14.9026C85.5376 16.7015 85.9311 18.3952 86.6395 20.0299C86.7445 20.2663 86.8363 20.5157 86.9216 20.7258C86.6942 21.1679 86.3072 21.3648 85.7606 21.3167C84.862 20.1612 84.6389 18.7038 84.2257 17.3251C83.701 16.905 83.1697 16.5111 82.6712 16.0843C79.8835 13.7012 77.9747 10.7535 77.0302 7.19531C76.9711 6.98523 76.9187 6.76858 76.9121 6.55194C76.8924 5.87574 77.4893 5.39649 78.1518 5.55406C78.6372 5.67223 79.0176 5.96765 79.3849 6.2959C80.2704 7.1034 81.0116 8.02907 81.661 9.02695C82.3497 10.097 83.0188 11.1934 83.6944 12.2701C83.8059 12.4539 83.924 12.6311 84.1667 13.0185L84.1535 13.0119Z" fill="white"/>
<path d="M87.2364 19.3931C87.138 19.1765 87.0461 18.9795 86.9478 18.7694C87.0396 18.5988 87.1249 18.4478 87.2036 18.3033C87.3479 18.2574 87.4725 18.1917 87.5971 18.1917C88.3908 18.2049 89.1845 18.2574 89.9716 18.2442C93.7301 18.172 96.7539 16.603 99.0956 13.6816C99.2595 13.478 99.4235 13.268 99.6006 13.0776C99.6531 13.0185 99.7515 12.9922 99.8892 12.9135C100.047 12.9463 100.25 12.9922 100.499 13.0448C100.578 13.3008 100.657 13.5437 100.735 13.8063C99.5744 15.8546 97.7968 17.1873 95.8159 18.2902C95.8225 18.6841 96.1308 18.6578 96.3603 18.7038C98.4724 19.1371 100.565 19.6689 102.539 20.5551C103.018 20.7718 103.477 21.0344 103.917 21.3364C104.356 21.6384 104.717 22.0323 104.743 22.6165C104.638 23.2534 104.212 23.4897 103.621 23.516C101.903 23.5947 100.198 23.516 98.5118 23.0827C96.2685 22.5049 94.1892 21.5924 92.3132 20.2334C92.1034 20.0759 91.8803 19.9315 91.6508 19.7673C90.2143 19.7017 88.745 19.9774 87.2232 19.3931H87.2364Z" fill="white"/>
<path d="M90.5025 13.5962C89.7416 14.8764 89.2169 16.2091 88.0887 17.0888C87.647 17.0494 87.2906 16.8262 87.0195 16.4191C87.1638 16.1828 87.295 15.9005 87.4852 15.6707C88.9283 13.9244 89.7285 11.8893 90.0237 9.67687C90.2861 7.72706 90.0237 5.81664 89.3087 3.97844C89.1972 3.69614 89.1185 3.40071 89.0463 3.10529C89.0267 3.02651 89.0791 2.9346 89.1119 2.7836C89.289 2.672 89.5055 2.53413 89.7154 2.40283C89.8663 2.46192 90.0302 2.47505 90.0958 2.56039C90.286 2.79673 90.4959 3.0462 90.5878 3.32193C90.8698 4.14913 91.2175 4.98288 91.329 5.8429C91.4798 6.96552 91.7291 8.0947 91.5192 9.24358C91.5192 9.26984 91.5651 9.30267 91.6307 9.37488C91.7947 9.23045 91.9587 9.09915 92.1161 8.94816C93.2705 7.86493 94.3922 6.74231 95.5794 5.69847C96.2353 5.12075 96.9831 4.6415 97.7177 4.16226C98.0391 3.95218 98.4261 3.80775 98.8066 3.70927C99.2395 3.5911 99.6855 3.60423 100.059 4.02439C100.315 4.54959 100.217 5.10105 99.9085 5.61313C99.574 6.17772 99.2133 6.73574 98.8263 7.26751C97.0224 9.72939 94.7595 11.6332 91.9849 12.9266C91.5061 13.1498 91.0272 13.3664 90.4959 13.6093L90.5025 13.5962Z" fill="white"/>
<path d="M68.7585 22.216C68.9619 21.4479 69.5391 21.1262 70.1753 20.9161C71.2182 20.5747 72.3071 20.3843 73.4025 20.345C74.675 20.299 75.9541 20.3121 77.2266 20.299C77.6595 20.299 78.0989 20.299 78.6302 20.299C78.3088 19.6885 77.7972 19.3996 77.4561 18.9597C77.0757 18.4805 76.669 18.0144 76.3148 17.5154C75.9869 17.0493 75.6851 16.5569 75.4293 16.0514C75.1735 15.5459 74.9833 15.0076 74.7865 14.5283C75.0008 14.1826 75.2741 13.9156 75.6064 13.7274C75.777 13.8587 76.0262 13.9769 76.1574 14.1738C76.3738 14.5021 76.505 14.8829 76.6821 15.2374C78.3351 18.4674 80.9129 20.5682 84.409 21.5267C84.7894 21.6317 85.1895 21.6448 85.5765 21.717C85.9635 21.7893 86.344 21.8877 86.7047 21.9731C86.8796 22.3845 86.8425 22.7718 86.5932 23.1351C85.8192 23.2445 84.4352 23.0235 82.4412 22.472C81.1621 22.8594 79.9618 23.2927 78.7352 23.5881C76.6231 24.0936 74.4848 24.2249 72.3333 23.8244C71.5593 23.68 70.7788 23.5553 70.0179 23.3517C69.4669 23.2073 68.9225 22.971 68.752 22.216H68.7585Z" fill="white"/>
<path d="M62.6846 28.315C63.4389 28.1312 64.0817 28.2099 64.5999 28.2887C65.4329 28.5841 65.7215 29.2669 66.1872 29.8643C66.6923 29.1028 67.1974 28.4528 68.0697 28.2165C68.8044 28.0196 69.5194 27.908 70.2933 28.1771C70.6213 28.9649 70.4311 29.7265 70.2015 30.593C69.9851 30.7966 69.703 31.0657 69.4931 31.2627C68.8241 31.394 68.2665 31.499 67.709 31.6172C67.1187 31.7419 66.6661 32.0636 66.325 32.7464C66.3119 33.0943 66.2791 33.5736 66.2725 34.0528C66.2659 35.3724 66.2725 36.6919 66.2725 38.0115C66.2725 38.4579 66.2528 38.8912 66.056 39.2983C65.6625 40.1123 65.0459 40.6178 64.1276 40.6835C63.6947 40.7163 63.2552 40.6835 62.7764 40.6835C62.7174 40.4143 62.6387 40.2042 62.6387 40.0007C62.6321 36.3046 62.6387 32.6085 62.6387 28.919C62.6387 28.7483 62.6715 28.5776 62.6977 28.2953L62.6846 28.315Z" fill="white"/>
<path d="M26.7598 28.2427C26.7926 28.63 26.8319 28.8861 26.8319 29.1421C26.8319 32.0504 26.8385 34.9587 26.8319 37.8605C26.8319 38.2544 26.786 38.6548 26.6876 39.029C26.4384 39.9941 25.6906 40.6243 24.7133 40.69C24.2804 40.7228 23.8475 40.69 23.349 40.6769C23.303 40.3749 23.2243 40.1254 23.2243 39.8759C23.2178 36.8363 23.2243 33.7967 23.2178 30.7571C23.2178 30.3107 23.2702 29.884 23.4539 29.4704C23.7622 28.7613 24.3132 28.3477 25.0544 28.2493C25.566 28.1771 26.0973 28.2361 26.7729 28.2361L26.7598 28.2427Z" fill="white"/>
<path d="M57.3585 28.2624C57.7193 28.2492 58.1588 28.2164 58.5917 28.2098C58.8016 28.2098 59.018 28.2558 59.3001 28.2821C59.3329 28.6563 59.3854 28.9911 59.3854 29.3325C59.3919 32.1948 59.3591 35.0572 59.405 37.9195C59.4247 39.1537 58.9787 40.0466 57.8111 40.644C57.5291 40.6637 57.1814 40.6965 56.8338 40.6965C56.5321 40.6965 56.2303 40.6571 55.8696 40.6309C55.8302 40.342 55.7712 40.086 55.7712 39.8365C55.7646 36.8428 55.7843 33.8492 55.7581 30.849C55.7449 29.6541 56.2369 28.8269 57.3585 28.2492V28.2624Z" fill="white"/>
<path d="M105.629 17.2529C105.53 17.8503 105.294 18.3558 104.756 18.6643C104.153 19.0123 103.517 19.0517 102.854 18.8744C102.257 18.7169 101.68 18.5199 101.162 18.172C100.853 17.9684 100.644 17.7058 100.696 17.2135C101.07 16.4782 101.686 15.8873 102.526 15.5328C103.844 14.9748 105.097 15.5328 105.543 16.8852C105.583 17.0099 105.602 17.1412 105.629 17.2594V17.2529Z" fill="white"/>
<path d="M92.5691 2.55379C92.6478 2.15333 92.7199 1.80538 92.779 1.50995C93.1791 0.643372 93.8022 0.14443 94.7992 0C95.0944 0.0984753 95.4683 0.216646 95.7569 0.308556C96.2619 0.728717 96.4653 1.18827 96.4653 1.75942C96.4653 2.31745 96.2554 2.79013 95.9209 3.21029C95.4486 3.80771 94.8517 4.25413 94.1695 4.58895C93.8744 4.73338 93.5726 4.73338 93.2512 4.55612C92.7068 3.99153 92.7265 3.21686 92.5625 2.55379H92.5691Z" fill="white"/>
<path d="M73.9407 18.218C73.2913 18.8351 72.5436 18.7563 71.8745 18.9664C71.4416 18.881 71.0087 18.8219 70.5823 18.7103C70.1953 18.6119 69.8543 18.4083 69.5984 18.0867C69.159 17.5221 69.1262 16.8853 69.4935 16.2353C69.7165 15.8414 70.0379 15.5526 70.4774 15.3556C71.4154 15.139 72.2943 15.2703 73.0027 16.0121C73.5865 16.6227 74.1178 17.2595 73.9407 18.2245V18.218Z" fill="white"/>
<path d="M83.517 3.17091C84.4812 3.65672 84.8748 4.40514 84.9929 5.38332C84.8814 6.2696 84.5403 7.10336 83.9499 7.76643C83.4711 8.00933 83.1169 7.89773 82.7889 7.62199C81.9231 6.88671 81.3197 6.00044 81.1885 4.83843C81.6148 3.29565 81.91 3.08557 83.517 3.17748V3.17091Z" fill="white"/>
<path d="M27.3301 51.3122C26.7594 51.6667 26.2412 51.8768 25.6378 51.8177C25.0278 51.7586 24.5424 51.5091 24.2275 50.9708C23.6306 49.9598 23.5454 48.9028 23.9783 47.7999C24.3587 46.8283 25.113 46.3687 26.1035 46.2637C26.4905 46.2243 26.884 46.2571 27.271 46.2571C27.6646 45.6466 27.3301 44.9769 27.5793 44.4123C27.7302 44.2285 27.8942 44.1103 28.1303 44.2876C28.1697 44.3664 28.2418 44.4386 28.2484 44.5174C28.2615 46.7626 28.2746 49.0079 28.2681 51.2597C28.2681 51.4172 28.1697 51.5748 28.1303 51.6864C27.7368 51.8177 27.6056 51.5157 27.3366 51.3122H27.3301ZM27.4285 50.2552C27.4875 49.2245 27.5269 48.1807 27.4088 47.104C27.0743 46.999 26.7857 46.907 26.497 46.8151C26.1035 46.9333 25.7296 47.0515 25.4213 47.1434C24.8441 47.5898 24.5621 48.115 24.5293 48.7649C24.4899 49.5199 24.5096 50.2683 25.1655 50.938C25.4016 51.0233 25.723 51.1415 25.9723 51.2334C26.602 51.1021 27.0611 50.8789 27.4285 50.2486V50.2552Z" fill="white"/>
<path d="M23.0207 26.9232C22.7058 25.7546 23.0338 24.8158 23.5585 23.9295C23.8537 23.4306 24.0571 23.3452 25.1328 23.0236C25.9855 23.1549 26.5365 23.6407 26.648 24.5466C26.7595 25.4592 26.3134 26.2864 25.4607 26.7065C24.8638 27.002 24.221 27.1464 23.552 27.1201C23.388 27.1201 23.2306 27.002 23.0207 26.9232Z" fill="white"/>
<path d="M56.0731 26.9362C55.7845 25.8793 56.0141 25.0127 56.4863 24.1921C56.8733 23.5093 57.0635 23.3977 58.1524 23.0366C58.2377 23.0432 58.3295 23.0366 58.4082 23.0629C59.2084 23.2992 59.6741 23.8179 59.7135 24.6713C59.7594 25.5445 59.3987 26.2403 58.6443 26.6343C57.8769 27.0413 57.0504 27.3498 56.0731 26.9362Z" fill="white"/>
<path d="M18.7703 51.6733H18.1668C17.9372 50.7476 17.9045 47.7999 18.1078 46.4738C18.2259 46.4278 18.3702 46.3753 18.5473 46.3031C18.6522 46.5001 18.7309 46.651 18.8096 46.8086C18.8818 46.8086 18.9671 46.8283 19.0261 46.7955C19.6864 46.4191 20.386 46.2615 21.1251 46.3228C21.9515 46.6773 22.2336 47.3995 22.3779 48.2004C22.4238 48.4564 22.4107 48.7256 22.4107 48.9882C22.4041 49.8613 22.4369 50.7345 22.3844 51.6536C22.1614 51.693 22.004 51.7192 21.8007 51.7586C21.7416 51.5617 21.6498 51.4041 21.6498 51.2466C21.6301 50.4128 21.6367 49.579 21.6301 48.7453C21.6301 48.161 21.5186 47.6095 21.0398 47.15C20.3117 46.8414 19.6295 46.894 19.0458 47.6358C18.6981 48.9094 19.1179 50.2946 18.7834 51.6733H18.7703Z" fill="white"/>
<path d="M33.7649 51.6667C33.66 51.6929 33.5354 51.7192 33.4173 51.752C33.2336 51.6142 33.0631 51.4894 32.9319 51.3909C32.4334 51.5419 31.9874 51.752 31.5282 51.8045C30.4394 51.9227 29.895 51.4238 29.8228 50.3208C29.8163 50.1895 29.8425 50.0582 29.8556 49.9466C30.0458 49.4477 30.4131 49.1523 30.8264 48.975C31.5479 48.7649 32.276 48.9881 32.9516 48.7058C33.109 48.1413 33.0893 47.6489 32.6892 47.1959C31.9743 46.8217 31.2462 46.9924 30.4591 47.1762C30.4131 47.0383 30.3607 46.8939 30.3082 46.7429C31.0297 46.1389 31.8103 46.1586 32.5908 46.349C33.2992 46.5197 33.6797 47.0449 33.8174 47.7539C34.0536 48.9684 34.0339 50.1961 33.9224 51.4238C33.9158 51.5025 33.8371 51.5748 33.7846 51.6667H33.7649ZM30.669 50.8723C30.9576 51.0102 31.2199 51.1415 31.4364 51.2465C32.8926 50.8067 33.0959 50.5637 32.9057 49.533C31.561 49.3164 31.4102 49.3492 30.6362 50.1173C30.6493 50.3208 30.6624 50.5769 30.6755 50.8723H30.669Z" fill="white"/>
<path d="M16.3173 51.5354C15.8319 51.9162 15.6417 51.6405 15.4449 51.4107C15.3662 51.4107 15.2744 51.3844 15.2088 51.4107C14.9267 51.5223 14.6578 51.6996 14.3692 51.7652C13.2279 52.0212 12.3686 51.4632 12.1128 50.3275C12.0472 50.032 12.0079 49.7235 11.9751 49.4149C11.8635 48.4564 11.8701 47.4979 11.9685 46.592C12.2112 46.2965 12.4276 46.2243 12.7491 46.5526C12.7687 46.8086 12.8146 47.15 12.8212 47.4914C12.8409 48.2792 12.8212 49.0735 12.8606 49.8613C12.8934 50.5441 13.2082 51.0299 14.015 51.1875C14.3102 51.089 14.6775 50.9643 14.9333 50.8789C15.4121 50.4391 15.5302 49.9861 15.5236 49.4806C15.5105 48.7781 15.5171 48.0757 15.5236 47.3732C15.5236 47.0712 15.5564 46.7692 15.5695 46.5198C15.786 46.2834 15.9762 46.2506 16.2648 46.4804C16.396 48.1085 16.2845 49.8154 16.3239 51.5157L16.3173 51.5354Z" fill="white"/>
<path d="M46.4047 47.813C46.4768 48.1609 46.5687 48.5942 46.6605 49.0275C46.5752 49.4608 46.4834 49.8875 46.4112 50.2355C46.0702 50.9905 45.5716 51.4566 44.7911 51.7783H43.394C42.62 51.4894 42.128 51.0167 41.7673 50.2617C41.6951 49.9269 41.6033 49.5002 41.5049 49.0472C41.5902 48.6336 41.682 48.2069 41.7541 47.8327C42.6921 45.7516 45.4077 45.7056 46.3981 47.8064L46.4047 47.813ZM44.1417 51.2465C45.447 50.7672 45.4667 50.7344 45.8406 49.126C45.7094 48.4498 45.6963 47.7211 44.9879 47.1368C44.7386 47.058 44.3713 46.9398 44.0564 46.8479C42.7511 47.3469 42.3051 47.9312 42.3707 49.0932C42.4035 49.6118 42.4757 50.1436 42.8233 50.5834C43.1381 50.997 43.5776 51.1677 44.1417 51.2465Z" fill="white"/>
<path d="M8.03282 51.8177C6.91118 51.7651 5.92728 50.9183 5.76986 49.7891C5.69771 49.277 5.69771 48.7255 5.78298 48.2135C5.96008 47.1368 6.91774 46.3162 7.96722 46.2505C9.08886 46.1783 10.0924 46.7889 10.4729 47.7933C10.7615 48.5548 10.8271 49.3098 10.5319 50.1042C10.0924 51.2925 9.28564 51.8702 8.02626 51.8111L8.03282 51.8177ZM8.23616 46.8742C7.56273 47.0624 7.01394 47.4651 6.58977 48.0822C6.47171 49.0472 6.31428 50.0517 7.21291 50.9183C7.52775 51.0233 7.89507 51.1415 8.2296 51.2531C8.7609 51.1086 9.22661 50.9576 9.49554 50.5178C9.77759 50.0648 9.94813 49.5659 9.94157 49.0275C9.93501 48.4892 9.77103 47.9903 9.48242 47.5438C9.19381 47.0974 8.70186 47.0055 8.23616 46.8808V46.8742Z" fill="white"/>
<path d="M48.6478 51.6667C48.4707 51.693 48.346 51.7061 48.228 51.7258C48.182 51.6798 48.1558 51.647 48.1296 51.6142C48.1033 51.5814 48.0705 51.542 48.064 51.5026C47.9328 50.0189 47.9918 47.1894 48.1755 46.4081C48.5559 46.1849 48.6806 46.6642 49.0085 46.7101C49.5923 46.3622 50.2417 46.1193 51.0419 46.3293C51.8749 46.7167 52.275 47.452 52.2947 48.4039C52.3144 49.4543 52.2947 50.5113 52.2947 51.6339C52.0652 51.6733 51.8749 51.7127 51.711 51.7389C51.6322 51.601 51.5535 51.5288 51.5535 51.4501C51.5338 50.485 51.5207 49.5199 51.5076 48.5549C51.5076 48.0034 51.3961 47.5045 50.9107 47.15C49.7563 46.8808 49.7366 46.8874 48.9101 47.6752C48.5756 48.9554 49.0282 50.3471 48.6412 51.6667H48.6478Z" fill="white"/>
<path d="M89.1977 22.2357C89.9979 25.7217 89.1386 28.63 87.0724 31.3283C86.9937 31.1576 86.915 31.0722 86.9347 31.0066C87.5841 28.2296 88.24 25.4591 88.9025 22.6821C88.9287 22.564 89.0402 22.4655 89.1977 22.2357Z" fill="white"/>
<path d="M3.54644 51.6864C3.32342 51.7061 3.15944 51.7193 2.99546 51.7324C2.92987 51.5748 2.83804 51.4632 2.83148 51.3451C2.81836 49.625 2.81836 47.9116 2.81836 46.1915C2.81836 45.6466 2.93643 45.1477 3.31687 44.6487C3.9072 44.0973 4.63528 43.9857 5.46175 44.268C5.46831 44.4255 5.47487 44.5503 5.48799 44.7472C5.01572 44.826 4.55657 44.8982 4.14334 44.9639C3.61859 45.4431 3.55956 45.988 3.67763 46.5789C4.07118 46.9728 4.62872 46.6248 5.12723 46.9399C5.12067 47.045 5.10755 47.196 5.09443 47.3864C4.62216 47.4586 4.19581 47.5177 3.72354 47.5899C3.46117 48.9094 3.72354 50.2356 3.553 51.6864H3.54644Z" fill="white"/>
<path d="M37.9825 51.1481C38.0415 51.2728 38.1071 51.3516 38.1071 51.4238C38.1071 51.496 38.0284 51.5682 37.9693 51.6667C37.8709 51.6995 37.7463 51.7717 37.6217 51.7783C37.2281 51.7914 36.8346 51.7783 36.5329 51.7783C35.8966 51.5026 35.667 51.0496 35.608 50.4916C35.5818 50.229 35.5752 49.9664 35.5752 49.7038C35.5752 48.4302 35.5752 47.15 35.5752 45.8764C35.5752 45.6203 35.608 45.3577 35.6211 45.1608C35.8441 44.9047 36.0343 44.8916 36.3164 45.1148C36.3557 45.4234 36.4082 45.7976 36.4673 46.2374C36.9986 46.2834 37.4708 46.3228 37.9037 46.3622C37.989 46.4672 38.0743 46.5263 38.094 46.5985C38.1136 46.6707 38.0677 46.7561 38.0349 46.9202C37.5561 46.9793 37.051 47.0384 36.5788 47.0909C36.5066 47.2091 36.4213 47.2747 36.4213 47.3535C36.3557 48.4958 36.3295 49.6316 36.4345 50.7017C36.664 51.043 36.9264 51.2006 37.2478 51.2072C37.4971 51.2072 37.7529 51.1678 37.9825 51.1415V51.1481Z" fill="white"/>
<path d="M40.0093 51.7455C39.8059 51.7061 39.6879 51.6798 39.5764 51.6601C39.5173 51.5682 39.4452 51.496 39.4386 51.4172C39.3402 50.4915 39.3599 47.511 39.4648 46.5591C39.6157 46.395 39.7731 46.2374 40.0093 46.4278C40.1995 47.406 40.2126 50.4784 40.0093 51.7455Z" fill="white"/>
<path d="M40.2587 45.1476H39.4322C39.3863 44.931 39.3535 44.7669 39.3076 44.5633C39.4782 44.4255 39.6356 44.3007 39.7602 44.2023C40.2587 44.3204 40.3965 44.583 40.2522 45.1476H40.2587Z" fill="white"/>
</g>
<defs>
<clipPath id="clip0_177_20">
<rect width="105.513" height="51.8308" fill="white" transform="translate(0.115723)"/>
</clipPath>
</defs>
</svg>
