<svg width="132" height="42" viewBox="0 0 132 42" fill="none" xmlns="http://www.w3.org/2000/svg">
<g clip-path="url(#clip0_174_10)">
<path d="M116.06 3.70001H6.13C2.74449 3.70001 0 6.44451 0 9.83001V32.18C0 35.5655 2.74449 38.31 6.13 38.31H116.06C119.446 38.31 122.19 35.5655 122.19 32.18V9.83001C122.19 6.44451 119.446 3.70001 116.06 3.70001Z" fill="#888A8D"/>
<path d="M9.53012 9.78003L11.9901 16.32L14.4501 9.78003H16.3701V18.31H14.8901V15.5L15.0401 11.74L12.5201 18.31H11.4601L8.95012 11.74L9.10012 15.5V18.31H7.62012V9.78003H9.54012H9.53012Z" fill="white"/>
<path d="M23.1001 14.5H19.6001V17.12H23.7001V18.3H18.1201V9.77002H23.6601V10.97H19.6101V13.33H23.1101V14.5H23.1001Z" fill="white"/>
<path d="M31.1802 10.98H28.5202V18.32H27.0502V10.98H24.4102V9.78003H31.1802V10.98Z" fill="white"/>
<path d="M38.9499 14.27C38.9499 15.11 38.8099 15.84 38.5199 16.47C38.2299 17.1 37.8199 17.59 37.2799 17.92C36.7399 18.25 36.1299 18.43 35.4299 18.43C34.7299 18.43 34.1199 18.26 33.5799 17.92C33.0399 17.58 32.6199 17.1 32.3299 16.48C32.0399 15.86 31.8899 15.13 31.8799 14.32V13.84C31.8799 13.01 32.0299 12.27 32.3199 11.64C32.6099 11.01 33.0299 10.52 33.5699 10.18C34.1099 9.84004 34.7199 9.67004 35.4199 9.67004C36.1199 9.67004 36.7299 9.84004 37.2699 10.17C37.8099 10.5 38.2199 10.98 38.5199 11.61C38.8199 12.24 38.9599 12.97 38.9699 13.8V14.27H38.9499ZM37.4599 13.82C37.4599 12.87 37.2799 12.15 36.9199 11.65C36.5599 11.15 36.0599 10.89 35.3999 10.89C34.7399 10.89 34.2599 11.14 33.8999 11.64C33.5399 12.14 33.3599 12.85 33.3499 13.77V14.26C33.3499 15.2 33.5299 15.92 33.8999 16.43C34.2699 16.94 34.7699 17.2 35.4199 17.2C36.0699 17.2 36.5799 16.95 36.9299 16.45C37.2799 15.95 37.4599 15.22 37.4599 14.26V13.81V13.82Z" fill="white"/>
<path d="M40.4199 18.31V9.78003H42.9399C43.6899 9.78003 44.3599 9.95003 44.9499 10.28C45.5399 10.61 45.9899 11.09 46.3099 11.71C46.6299 12.33 46.7899 13.03 46.7899 13.83V14.26C46.7899 15.07 46.6299 15.78 46.3099 16.39C45.9899 17 45.5299 17.48 44.9299 17.81C44.3299 18.14 43.6499 18.31 42.8799 18.31H40.4199ZM41.8999 10.98V17.13H42.8699C43.6499 17.13 44.2399 16.89 44.6599 16.4C45.0799 15.91 45.2899 15.22 45.2999 14.31V13.84C45.2999 12.91 45.0999 12.21 44.6999 11.72C44.2999 11.23 43.7099 10.99 42.9499 10.99H41.9099L41.8999 10.98Z" fill="white"/>
<path d="M55.07 14.27C55.07 15.11 54.93 15.84 54.64 16.47C54.35 17.1 53.94 17.59 53.4 17.92C52.86 18.25 52.25 18.43 51.55 18.43C50.85 18.43 50.24 18.26 49.7 17.92C49.16 17.58 48.74 17.1 48.45 16.48C48.16 15.86 48.01 15.13 48 14.32V13.84C48 13.01 48.15 12.27 48.44 11.64C48.73 11.01 49.15 10.52 49.69 10.18C50.23 9.84004 50.84 9.67004 51.54 9.67004C52.24 9.67004 52.85 9.84004 53.39 10.17C53.93 10.5 54.34 10.98 54.64 11.61C54.94 12.24 55.08 12.97 55.09 13.8V14.27H55.07ZM53.59 13.82C53.59 12.87 53.41 12.15 53.05 11.65C52.69 11.15 52.19 10.89 51.53 10.89C50.87 10.89 50.39 11.14 50.03 11.64C49.67 12.14 49.49 12.85 49.48 13.77V14.26C49.48 15.2 49.66 15.92 50.03 16.43C50.4 16.94 50.9 17.2 51.55 17.2C52.2 17.2 52.71 16.95 53.06 16.45C53.41 15.95 53.59 15.22 53.59 14.26V13.81V13.82Z" fill="white"/>
<path d="M58.03 17.13H61.9V18.31H56.54V9.78003H58.02V17.13H58.03Z" fill="white"/>
<path d="M69.4699 14.27C69.4699 15.11 69.3299 15.84 69.0399 16.47C68.7499 17.1 68.3399 17.59 67.7999 17.92C67.2599 18.25 66.6499 18.43 65.9499 18.43C65.2499 18.43 64.6399 18.26 64.0999 17.92C63.5599 17.58 63.1399 17.1 62.8499 16.48C62.5599 15.86 62.4099 15.13 62.3999 14.32V13.84C62.3999 13.01 62.5499 12.27 62.8399 11.64C63.1299 11.01 63.5499 10.52 64.0899 10.18C64.6299 9.84004 65.2399 9.67004 65.9399 9.67004C66.6399 9.67004 67.2499 9.84004 67.7899 10.17C68.3299 10.5 68.7399 10.98 69.0399 11.61C69.3399 12.24 69.4799 12.97 69.4899 13.8V14.27H69.4699ZM67.9899 13.82C67.9899 12.87 67.8099 12.15 67.4499 11.65C67.0899 11.15 66.5899 10.89 65.9299 10.89C65.2699 10.89 64.7899 11.14 64.4299 11.64C64.0699 12.14 63.8899 12.85 63.8799 13.77V14.26C63.8799 15.2 64.0599 15.92 64.4299 16.43C64.7999 16.94 65.2999 17.2 65.9499 17.2C66.5999 17.2 67.1099 16.95 67.4599 16.45C67.8099 15.95 67.9899 15.22 67.9899 14.26V13.81V13.82Z" fill="white"/>
<path d="M77.49 17.2C77.18 17.6 76.75 17.91 76.21 18.11C75.67 18.31 75.04 18.42 74.35 18.42C73.66 18.42 73 18.26 72.45 17.93C71.9 17.6 71.47 17.14 71.17 16.54C70.87 15.94 70.72 15.23 70.71 14.43V13.76C70.71 12.47 71.02 11.46 71.64 10.74C72.26 10.02 73.12 9.65002 74.22 9.65002C75.17 9.65002 75.92 9.89002 76.48 10.36C77.04 10.83 77.37 11.51 77.49 12.39H76.04C75.88 11.36 75.28 10.85 74.25 10.85C73.59 10.85 73.08 11.09 72.73 11.57C72.38 12.05 72.21 12.75 72.19 13.67V14.33C72.19 15.25 72.38 15.97 72.77 16.48C73.16 16.99 73.7 17.24 74.39 17.24C75.15 17.24 75.69 17.07 76.01 16.72V15.05H74.25V13.93H77.48V17.2H77.49Z" fill="white"/>
<path d="M80.6802 18.31H79.2002V9.78003H80.6802V18.31Z" fill="white"/>
<path d="M87.28 16.33H83.98L83.29 18.32H81.75L84.97 9.79004H86.3L89.53 18.32H87.98L87.28 16.33ZM84.39 15.13H86.86L85.62 11.59L84.38 15.13H84.39Z" fill="white"/>
<path d="M11.1 24.18H12.58V30.16C12.58 30.98 12.32 31.62 11.81 32.11C11.3 32.6 10.63 32.83 9.79 32.83C8.9 32.83 8.21 32.61 7.73 32.16C7.25 31.71 7 31.09 7 30.28H8.48C8.48 30.73 8.59 31.07 8.82 31.3C9.05 31.53 9.37 31.64 9.8 31.64C10.2 31.64 10.51 31.51 10.75 31.24C10.99 30.97 11.11 30.61 11.11 30.15V24.17L11.1 24.18Z" fill="#38296B"/>
<path d="M21.0798 28.67C21.0798 29.51 20.9398 30.24 20.6498 30.87C20.3598 31.5 19.9498 31.99 19.4098 32.32C18.8698 32.65 18.2598 32.83 17.5598 32.83C16.8598 32.83 16.2498 32.66 15.7098 32.32C15.1698 31.98 14.7498 31.5 14.4598 30.88C14.1698 30.26 14.0198 29.53 14.0098 28.72V28.24C14.0098 27.41 14.1598 26.67 14.4498 26.04C14.7398 25.41 15.1598 24.92 15.6998 24.58C16.2398 24.24 16.8498 24.07 17.5498 24.07C18.2498 24.07 18.8598 24.24 19.3998 24.57C19.9398 24.9 20.3498 25.38 20.6498 26.01C20.9498 26.64 21.0898 27.37 21.0998 28.2V28.67H21.0798ZM19.5998 28.22C19.5998 27.27 19.4198 26.55 19.0598 26.05C18.6998 25.55 18.1998 25.29 17.5398 25.29C16.8798 25.29 16.3998 25.54 16.0398 26.04C15.6798 26.54 15.4998 27.25 15.4898 28.17V28.66C15.4898 29.6 15.6698 30.32 16.0398 30.83C16.4098 31.34 16.9098 31.6 17.5598 31.6C18.2098 31.6 18.7198 31.35 19.0698 30.85C19.4198 30.35 19.5998 29.62 19.5998 28.66V28.21V28.22Z" fill="#38296B"/>
<path d="M29.3301 32.7101H27.8501V28.9201H24.0401V32.7101H22.5601V24.1801H24.0401V27.7301H27.8501V24.1801H29.3301V32.7101Z" fill="#38296B"/>
<path d="M37.8498 32.7101H36.3698L32.5698 26.6601V32.7101H31.0898V24.1801H32.5698L36.3798 30.2601V24.1801H37.8498V32.7101Z" fill="#38296B"/>
<path d="M44.5101 24.1801L46.9701 30.7201L49.4301 24.1801H51.3501V32.7101H49.8701V29.9001L50.0201 26.1401L47.5001 32.7101H46.4401L43.9301 26.1401L44.0801 29.9001V32.7101H42.6001V24.1801H44.5201H44.5101Z" fill="#38296B"/>
<path d="M57.8698 30.73H54.5698L53.8798 32.72H52.3398L55.5598 24.19H56.8898L60.1198 32.72H58.5698L57.8698 30.73ZM54.9798 29.53H57.4498L56.2098 25.99L54.9698 29.53H54.9798Z" fill="#38296B"/>
<path d="M64.02 27.2601L65.81 24.1801H67.52L64.94 28.4101L67.58 32.7101H65.85L64.02 29.5801L62.18 32.7101H60.46L63.1 28.4101L60.52 24.1801H62.23L64.02 27.2601Z" fill="#38296B"/>
<path d="M75.3699 30.6001L76.6798 24.1801H78.1498L76.1798 32.7101H74.7598L73.1398 26.4801L71.4799 32.7101H70.0598L68.0898 24.1801H69.5598L70.8798 30.5901L72.5098 24.1801H73.7498L75.3598 30.6001H75.3699Z" fill="#38296B"/>
<path d="M84.22 28.9H80.72V31.52H84.81V32.7H79.23V24.17H84.77V25.37H80.72V27.73H84.22V28.9Z" fill="#38296B"/>
<path d="M87.4998 31.5301H91.3698V32.7101H86.0098V24.1801H87.4898V31.5301H87.4998Z" fill="#38296B"/>
<path d="M93.99 31.5301H97.86V32.7101H92.5V24.1801H93.98V31.5301H93.99Z" fill="#38296B"/>
<path fill-rule="evenodd" clip-rule="evenodd" d="M116.81 14.85L98.1499 19.72H106.08C106.42 19.72 106.76 19.75 107.1 19.82L107.65 19.93C108.31 20.06 108.94 20.33 109.51 20.71C110.06 21.08 110.53 21.55 110.9 22.1C111.28 22.66 111.54 23.3 111.67 23.96L111.78 24.51C111.85 24.85 111.88 25.19 111.88 25.53L111.84 33.46L116.82 14.84L116.81 14.85Z" fill="#38296B"/>
<path fill-rule="evenodd" clip-rule="evenodd" d="M131.68 0L89.7998 10.94H110.88C111.23 10.94 111.58 10.96 111.92 11L112.48 11.06C113.17 11.14 113.85 11.3 114.5 11.53C115.14 11.76 115.75 12.06 116.32 12.42C116.88 12.78 117.4 13.2 117.87 13.67H117.88C118.35 14.16 118.76 14.68 119.12 15.24C119.48 15.82 119.78 16.43 120 17.07C120.23 17.72 120.39 18.4 120.46 19.09L120.52 19.65C120.56 20 120.58 20.34 120.57 20.69L120.46 41.77L131.68 0Z" fill="#38296B"/>
</g>
<defs>
<clipPath id="clip0_174_10">
<rect width="131.68" height="41.8" fill="white"/>
</clipPath>
</defs>
</svg>
